<?xml version="1.0" standalone="no"?>
<!DOCTYPE svg PUBLIC "-//W3C//DTD SVG 20010904//EN"
 "http://www.w3.org/TR/2001/REC-SVG-20010904/DTD/svg10.dtd">
<svg version="1.0" xmlns="http://www.w3.org/2000/svg"
 width="512.000000pt" height="512.000000pt" viewBox="0 0 512.000000 512.000000"
 preserveAspectRatio="xMidYMid meet">
<metadata>
Created by potrace 1.11, written by Peter Selinger 2001-2013
</metadata>
<g transform="translate(0.000000,512.000000) scale(0.100000,-0.100000)"
fill="#000000" stroke="none">
<path d="M2325 4798 c-392 -44 -778 -198 -1100 -440 -100 -75 -325 -282 -325
-298 0 -21 580 -217 826 -279 250 -63 378 -83 539 -84 169 0 264 12 545 69
181 37 233 44 331 44 595 0 1043 -388 1208 -1046 63 -250 91 -427 91 -569 0
-112 -16 -161 -61 -182 -42 -20 -86 1 -204 98 -486 403 -821 640 -958 680
-117 33 -597 -299 -673 -466 l-27 -59 29 -55 c56 -108 326 -366 739 -706 99
-81 199 -166 223 -189 105 -100 93 -284 -22 -343 -40 -21 -296 -19 -499 2
-645 68 -1125 267 -1295 538 -47 76 -56 100 -131 352 -191 642 -282 769 -701
976 -148 73 -452 209 -467 209 -6 0 -18 -46 -27 -102 -99 -608 40 -1194 402
-1698 100 -139 343 -382 482 -482 509 -366 1117 -506 1718 -398 1064 192 1842
1121 1842 2200 0 1149 -865 2108 -2012 2230 -114 12 -360 11 -473 -2z"/>
</g>
</svg>
