<?xml version="1.0" encoding="utf-8"?>
<!-- Generator: Adobe Illustrator 16.2.0, SVG Export Plug-In . SVG Version: 6.00 Build 0)  -->
<!DOCTYPE svg PUBLIC "-//W3C//DTD SVG 1.1//EN" "http://www.w3.org/Graphics/SVG/1.1/DTD/svg11.dtd">
<svg version="1.1" xmlns="http://www.w3.org/2000/svg" xmlns:xlink="http://www.w3.org/1999/xlink" x="0px" y="0px" width="200px"
	 height="200px" viewBox="0 0 200 200" enable-background="new 0 0 200 200" xml:space="preserve">
<g id="Layer_2" display="none">
	
		<rect x="-1.672" y="-1.259" display="inline" fill-rule="evenodd" clip-rule="evenodd" fill="#231F20" width="204.515" height="203.385"/>
</g>
<g id="Layer_1">
	
		<path id="circle" fill-rule="evenodd" clip-rule="evenodd" fill="none" stroke="#FFFFFF" stroke-width="2" stroke-miterlimit="10" d="
		M100.5,9.5c49.705,0,90,40.294,90,90s-40.295,90-90,90c-49.706,0-90-40.294-90-90S50.794,9.5,100.5,9.5z"/>
	
		<path id="spanner" display="none" fill-rule="evenodd" clip-rule="evenodd" fill="none" stroke="#FFFFFF" stroke-width="2" stroke-miterlimit="10" d="
		M31.246,41.333c0,0,39.038,16.143,58.557,15.409c19.518-0.734,24.306-5.87,37.565-4.402c13.258,1.468,34.25,8.805,41.985,41.826
		c7.732,33.02-0.917,26.215-2.212,25.314c-1.246-0.867-36.46-31.186-43.089-29.718c-6.63,1.467-26.884,14.309-26.516,22.013
		c0.369,7.705,37.602,35.732,39.774,38.522c1.654,2.125,2.947,9.174-2.208,11.008c-4.229,1.504-63.219-0.526-70.711-26.417
		C52.793,94.81,52.519,95.927,13.568,78.757"/>
	<path id="tap" fill-rule="evenodd" clip-rule="evenodd" fill="none" stroke="#FFFFFF" stroke-width="2" stroke-miterlimit="10" d="
		M16.569,130.628c1.348,0,38.912,0.643,45.268,0.449s9.822,3.679,14.637,6.196c4.814,2.517,18.681,2.517,22.34,2.322
		c3.659-0.193,21.763-14.133,32.356-6.969c5.153,3.484,3.466,20.522,5.393,23.232c1.926,2.71,3.466,3.098,12.325,3.098
		c8.86,0,10.593-3.485,11.556-4.647c0.964-1.16,1.927-11.035-3.081-28.653c-5.007-17.618-19.452-20.328-36.207-20.909
		c-16.758-0.581-15.409-8.325-16.179-14.714c-0.771-6.39,3.852-12.972,3.081-15.489c-0.771-2.517-6.933-4.065-10.015-6.97
		c-3.082-2.904-1.347-11.81,0.771-15.488c2.118-3.679,10.593-1.548,16.949-1.548c6.354,0,3.658,3.679,14.637,3.872
		c10.978,0.194,10.851-7.076,9.095-12.458c-2.029-6.222-11.406-5.741-16.799-3.03c-5.393,2.71-13.675,1.548-18.489,1.548
		c-4.815,0-5.971-6.97-14.637-6.97c-8.666,0-8.829,6.229-14.991,6.616c-6.163,0.387-31.9-9.586-34.313,2.678
		c-2.099,10.668,13.096,13.939,20.03,9.292c6.934-4.647,15.022-1.354,19.259-0.774c4.238,0.581,3.659,11.036,3.082,13.94
		c-0.578,2.904-8.667,6.001-12.326,7.744c-3.659,1.742,2.312,9.1,3.082,10.842c0.771,1.743,3.082,12.003-3.852,17.038
		c-6.934,5.034-59.042,2.436-59.042,2.436"/>
	
		<path display="none" fill-rule="evenodd" clip-rule="evenodd" fill="none" stroke="#FFFFFF" stroke-width="2" stroke-miterlimit="10" d="
		M106.034,90.699l28.084-16.292l1.259-23.82l9.294-1.901l-1.892,20.722l20.784-12l5.5,9.526l-20.784,12l18.892,8.723l-6.294,7.098
		l-21.259-10.82l-28.578,16.5 M95.158,91.055v-33l-20-13l3-9l17,12v-24h11v24l17-12l3,9l-20,13l-0.124,32.645"/>
	
		<path display="none" fill-rule="evenodd" clip-rule="evenodd" fill="none" stroke="#FFFFFF" stroke-width="2" stroke-miterlimit="10" d="
		M95.124,110.039L67.04,126.331l-1.259,23.82l-9.294,1.901l1.892-20.722l-20.784,12l-5.5-9.526l20.784-12l-18.892-8.723l6.294-7.098
		l21.259,10.82l28.578-16.5 M106,109.684v33l20,13l-3,9l-17-12v24H95v-24l-17,12l-3-9l20-13l0.124-32.645"/>
	
		<polyline display="none" fill-rule="evenodd" clip-rule="evenodd" fill="none" stroke="#FFFFFF" stroke-width="2" stroke-miterlimit="10" points="
		90.147,100.433 61.57,83.933 40.311,94.753 34.017,87.655 52.91,78.933 32.125,66.933 37.625,57.407 58.41,69.407 56.517,48.685 
		65.811,50.586 67.07,74.407 95.278,90.836 	"/>
	
		<polyline display="none" fill-rule="evenodd" clip-rule="evenodd" fill="none" stroke="#FFFFFF" stroke-width="2" stroke-miterlimit="10" points="
		111.04,100.434 139.618,116.933 160.878,106.113 167.171,113.212 148.278,121.933 169.063,133.935 163.563,143.46 142.778,131.46 
		144.671,152.183 135.378,150.28 134.118,126.46 105.911,110.031 	"/>
</g>
</svg>
